<svg xmlns="http://www.w3.org/2000/svg" version="1.1" xmlns:xlink="http://www.w3.org/1999/xlink" xmlns:svgjs="http://svgjs.dev/svgjs" width="1500" height="939" viewBox="0 0 1500 939"><g transform="matrix(1,0,0,1,-0.9090909090909918,118.43707453567936)"><svg viewBox="0 0 396 248" data-background-color="#ffffff" preserveAspectRatio="xMidYMid meet" height="939" width="1500" xmlns="http://www.w3.org/2000/svg" xmlns:xlink="http://www.w3.org/1999/xlink"><g id="tight-bounds" transform="matrix(1,0,0,1,0.2400000000000091,0.4000000000000057)"><svg viewBox="0 0 395.52 247.2" height="247.2" width="395.52"><g><svg></svg></g><g><svg viewBox="0 0 395.52 247.2" height="247.2" width="395.52"><g transform="matrix(1,0,0,1,75.54432,96.69115843390142)"><svg viewBox="0 0 244.43135999999998 53.81768313219713" height="53.81768313219713" width="244.43135999999998"><g><svg viewBox="0 0 244.43135999999998 53.81768313219713" height="53.81768313219713" width="244.43135999999998"><g><svg viewBox="0 0 244.43135999999998 53.81768313219713" height="53.81768313219713" width="244.43135999999998"><g><svg viewBox="0 0 244.43135999999998 53.81768313219713" height="53.81768313219713" width="244.43135999999998"><g id="textblocktransform"><svg viewBox="0 0 244.43135999999998 53.81768313219713" height="53.81768313219713" width="244.43135999999998" id="textblock"><g><svg viewBox="0 0 244.43135999999998 53.81768313219713" height="53.81768313219713" width="244.43135999999998"><g transform="matrix(1,0,0,1,0,0)"><svg width="244.43135999999998" viewBox="2.8 -34 217.07999999999998 47.8" height="53.81768313219713" data-palette-color="#2a160c"><path d="M5.9 0.5L5.9 0.5Q4.7 0.5 3.95-0.15 3.2-0.8 3.2-2.8L3.2-2.8Q3.2-3.8 3.4-5.4 3.6-7 3.8-8.6L3.8-8.6Q4.35-12.15 4.6-14.75 4.85-17.35 4.85-20.05L4.85-20.05Q4.85-22.55 4.58-24.7 4.3-26.85 3.2-28.4L3.2-28.4Q2.8-29.05 2.8-29.4L2.8-29.4Q2.8-30 3.48-30.68 4.15-31.35 5.13-31.8 6.1-32.25 6.95-32.25L6.95-32.25Q8.5-32.25 9.03-30.88 9.55-29.5 9.55-27.45L9.55-27.45Q9.55-26.2 9.4-24.35 9.25-22.5 9.08-20.78 8.9-19.05 8.75-18.1L8.75-18.1Q8.4-15.45 8.2-13.15 8-10.85 8-9.25L8-9.25Q8-7.35 8.38-6.05 8.75-4.75 9.7-3.9L9.7-3.9Q10.35-3.3 10.35-2.55L10.35-2.55Q10.35-1.35 9.13-0.43 7.9 0.5 5.9 0.5ZM20.95 0.65L20.95 0.65Q17.95 0.65 16.12-1.23 14.3-3.1 14.3-6.6L14.3-6.6Q14.3-9.1 15.27-11.58 16.25-14.05 18.1-16.05 19.95-18.05 22.55-19.25 25.15-20.45 28.4-20.45L28.4-20.45Q31.4-20.45 33.52-19.43 35.65-18.4 35.65-16.65L35.65-16.65Q35.65-16.2 35.55-15.48 35.45-14.75 35.3-14.3L35.3-14.3Q35.15-13.9 34.87-13.58 34.6-13.25 34.15-13.25L34.15-13.25Q33.95-13.25 33.4-13.4L33.4-13.4Q33.2-12.35 33.1-11.35 33-10.35 33-9.35L33-9.35Q33-7.45 33.57-5.98 34.15-4.5 35.85-4.15L35.85-4.15Q36.3-4.05 36.57-3.85 36.85-3.65 36.85-3L36.85-3Q36.85-2.45 36.57-1.6 36.3-0.75 35.52-0.08 34.75 0.6 33.3 0.6L33.3 0.6Q31.35 0.6 30.3-0.83 29.25-2.25 29.25-4.9L29.25-4.9Q27.9-2.45 25.82-0.9 23.75 0.65 20.95 0.65ZM22.55-4.55L22.55-4.55Q24.55-4.55 26.07-5.8 27.6-7.05 28.45-8.95L28.45-8.95Q29-10.15 29.3-11.58 29.6-13 29.7-14.4L29.7-14.4Q28.85-14.8 27.75-15.05 26.65-15.3 25.45-15.3L25.45-15.3Q22.4-15.3 20.42-13.5 18.45-11.7 18.45-9L18.45-9Q18.45-7 19.55-5.78 20.65-4.55 22.55-4.55ZM42.75 0.55L42.75 0.55Q40.95 0.55 41.15-0.65L41.15-0.65Q41.7-2.8 42.07-5.03 42.45-7.25 42.45-9.3L42.45-9.3Q42.45-11.95 42.12-13.18 41.8-14.4 41.25-14.88 40.7-15.35 39.9-15.6L39.9-15.6Q39.55-15.75 39.27-16 39-16.25 39-16.7L39-16.7Q39-17.4 39.55-18.25 40.1-19.1 41.12-19.73 42.15-20.35 43.45-20.35L43.45-20.35Q45.15-20.35 45.8-19.18 46.45-18 46.45-16.1L46.45-16.1Q46.45-14.85 46.2-13.3 45.95-11.75 45.7-10.5L45.7-10.5 45.8-10.45Q46.6-13.1 47.77-15.35 48.95-17.6 50.62-19 52.3-20.4 54.5-20.4L54.5-20.4Q56.75-20.4 58.05-18.88 59.35-17.35 59.35-14.4L59.35-14.4 59.35-13.3Q60.8-16.35 62.87-18.4 64.95-20.45 67.9-20.45L67.9-20.45Q70.3-20.45 71.65-18.85 73-17.25 73-14.85L73-14.85Q73-13.9 72.8-13.03 72.6-12.15 72.35-11.3L72.35-11.3Q72.15-10.5 71.95-9.65 71.75-8.8 71.75-7.95L71.75-7.95Q71.75-4.95 74.3-4.05L74.3-4.05Q74.65-3.9 74.85-3.73 75.05-3.55 75.05-3.1L75.05-3.1Q75.05-2.65 74.77-1.8 74.5-0.95 73.7-0.23 72.9 0.5 71.4 0.5L71.4 0.5Q69.45 0.5 68.4-0.93 67.35-2.35 67.35-4.55L67.35-4.55Q67.35-5.65 67.55-6.85 67.75-8.05 68.05-9.15L68.05-9.15Q68.3-10.15 68.47-11.05 68.65-11.95 68.65-12.6L68.65-12.6Q68.65-13.8 68.07-14.35 67.5-14.9 66.55-14.9L66.55-14.9Q64.95-14.9 63.67-13.9 62.4-12.9 61.42-11.3 60.45-9.7 59.75-7.8L59.75-7.8Q59.8-7.35 59.82-6.63 59.85-5.9 59.85-5.35L59.85-5.35Q59.85-4.4 59.72-3.35 59.6-2.3 59.25-1.6L59.25-1.6Q58.85-0.65 58.07-0.05 57.3 0.55 56 0.55L56 0.55Q55.45 0.55 54.95 0.33 54.45 0.1 54.45-0.4L54.45-0.4Q54.45-0.6 54.75-2.18 55.05-3.75 55.35-6.05 55.65-8.35 55.65-10.55L55.65-10.55Q55.65-12.95 55.15-13.88 54.65-14.8 53.65-14.8L53.65-14.8Q52.4-14.8 51.27-13.75 50.15-12.7 49.22-11.05 48.3-9.4 47.62-7.6 46.95-5.8 46.55-4.25L46.55-4.25 46.55-3.7Q46.55-1.85 45.52-0.65 44.5 0.55 42.75 0.55ZM87.09 0.6L87.09 0.6Q82.94 0.6 81.14-1.38 79.34-3.35 79.34-6.6L79.34-6.6Q79.34-7.45 79.49-8.65 79.64-9.85 79.89-11.55L79.89-11.55Q80.29-14 80.49-15.93 80.69-17.85 80.69-20.15L80.69-20.15Q80.69-22.8 80.54-24.45L80.54-24.45Q79.69-23.95 79.29-23.95L79.29-23.95Q78.49-23.95 78.49-25.75L78.49-25.75Q78.49-27.15 79.12-28.13 79.74-29.1 81.19-29.95L81.19-29.95Q82.64-30.85 84.87-31.5 87.09-32.15 89.64-32.15L89.64-32.15Q93.79-32.15 95.94-30.25 98.09-28.35 98.09-25.25L98.09-25.25Q98.09-23.25 97.24-21.55 96.39-19.85 94.84-18.55L94.84-18.55Q101.09-17.55 101.09-11.35L101.09-11.35Q101.09-8 99.19-5.25 97.29-2.5 94.04-0.95L94.04-0.95Q90.89 0.6 87.09 0.6ZM89.09-4.95L89.09-4.95Q91.34-4.95 93.17-5.58 94.99-6.2 96.09-7.4 97.19-8.6 97.19-10.2L97.19-10.2Q97.19-12.25 95.74-13.1 94.29-13.95 92.39-13.95L92.39-13.95Q91.59-13.95 90.39-13.8L90.39-13.8Q89.89-13.7 89.24-13.7L89.24-13.7Q88.14-13.7 87.42-14.6 86.69-15.5 86.69-16.85L86.69-16.85Q86.69-17.8 87.54-18.05L87.54-18.05Q93.64-19.65 93.64-23.6L93.64-23.6Q93.64-26.75 89.29-26.75L89.29-26.75Q87.69-26.75 85.34-26.2L85.34-26.2Q85.34-23.75 85.09-21.08 84.84-18.4 84.34-15.5L84.34-15.5Q84.04-13.5 83.87-12.13 83.69-10.75 83.69-9.9L83.69-9.9Q83.69-7.2 85.04-6.08 86.39-4.95 89.09-4.95ZM108.14 0.5L108.14 0.5Q106.69 0.5 105.99-0.3 105.29-1.1 105.29-3.1L105.29-3.1Q105.29-4.05 105.44-5.55 105.59-7.05 105.79-8.8L105.79-8.8Q106.09-10.95 106.32-13.3 106.54-15.65 106.54-17.8L106.54-17.8Q106.54-20.85 106.27-24.13 105.99-27.4 104.74-29.85L104.74-29.85Q104.29-30.85 104.29-31.3L104.29-31.3Q104.29-31.95 104.87-32.55 105.44-33.15 106.29-33.58 107.14-34 107.94-34L107.94-34Q109.24-34 109.89-32.83 110.54-31.65 110.74-29.63 110.94-27.6 110.94-25L110.94-25Q110.94-21.05 110.62-18.15 110.29-15.25 109.99-13.05L109.99-13.05Q109.79-11.6 109.62-10.3 109.44-9 109.44-7.95L109.44-7.95Q109.44-6.2 110.02-5.43 110.59-4.65 111.89-3.9L111.89-3.9Q112.24-3.7 112.42-3.53 112.59-3.35 112.59-3L112.59-3Q112.59-2.6 112.19-1.75 111.79-0.9 110.82-0.2 109.84 0.5 108.14 0.5ZM123.74 0.65L123.74 0.65Q120.29 0.65 118.21-1.23 116.14-3.1 116.14-6.75L116.14-6.75Q116.14-8.45 116.61-10.05 117.09-11.65 117.89-13.05L117.89-13.05Q117.09-12.55 116.69-12.55L116.69-12.55Q116.09-12.55 115.86-13.23 115.64-13.9 115.64-14.55L115.64-14.55Q115.64-15.7 116.11-16.38 116.59-17.05 117.04-17.4L117.04-17.4Q118.09-18.3 120.34-19.38 122.59-20.45 125.74-20.45L125.74-20.45Q130.04-20.45 132.41-18.05 134.79-15.65 134.79-11.35L134.79-11.35Q134.79-8 133.39-5.28 131.99-2.55 129.51-0.95 127.04 0.65 123.74 0.65ZM125.29-4.45L125.29-4.45Q127.79-4.45 129.51-6.03 131.24-7.6 131.24-10.2L131.24-10.2Q131.24-12.9 129.49-14.05 127.74-15.2 125.44-15.2L125.44-15.2Q124.39-15.2 123.54-15 122.69-14.8 121.94-14.5L121.94-14.5Q121.24-13.5 120.69-12.25 120.14-11 120.14-9.5L120.14-9.5Q120.14-7 121.64-5.73 123.14-4.45 125.29-4.45ZM144.89 13.8L144.89 13.8Q141.14 13.8 138.94 12.25 136.74 10.7 136.74 8.25L136.74 8.25Q136.74 6.45 137.86 5.05 138.99 3.65 140.84 3.65L140.84 3.65Q141.89 3.65 141.89 4.25L141.89 4.25Q141.89 4.6 141.76 5.05 141.64 5.5 141.64 5.95L141.64 5.95Q141.64 7.35 143.24 8.03 144.84 8.7 147.09 8.7L147.09 8.7Q148.49 8.7 149.94 8.4 151.39 8.1 152.36 7.48 153.34 6.85 153.34 5.8L153.34 5.8Q153.34 4.65 152.19 4.1 151.04 3.55 149.29 3.28 147.54 3 145.71 2.78 143.89 2.55 142.59 2.05L142.59 2.05Q140.94 1.5 140.14 0.7 139.34-0.1 139.34-1.35L139.34-1.35Q139.34-3.7 142.19-5.1L142.19-5.1Q140.54-5.95 139.71-7.5 138.89-9.05 138.89-10.95L138.89-10.95Q138.89-13.4 140.16-15.55 141.44-17.7 143.96-19.07 146.49-20.45 150.29-20.45L150.29-20.45Q151.99-20.45 153.74-20.13 155.49-19.8 156.66-18.93 157.84-18.05 157.84-16.4L157.84-16.4Q157.84-15.8 157.59-15.08 157.34-14.35 156.64-14.35L156.64-14.35Q156.34-14.35 155.84-14.48 155.34-14.6 154.94-14.7L154.94-14.7Q155.04-14.2 155.11-13.6 155.19-13 155.19-12.35L155.19-12.35Q155.19-9.4 153.19-7.03 151.19-4.65 147.34-4.2L147.34-4.2Q145.94-4.1 145.26-3.88 144.59-3.65 144.59-3.1L144.59-3.1Q144.59-2.6 145.19-2.38 145.79-2.15 146.74-2.05L146.74-2.05Q149.79-1.8 152.14-1.2 154.49-0.6 155.81 0.73 157.14 2.05 157.14 4.5L157.14 4.5Q157.14 7.35 155.46 9.43 153.79 11.5 150.99 12.65 148.19 13.8 144.89 13.8ZM146.79-8.55L146.79-8.55Q149.09-8.55 150.39-9.8 151.69-11.05 151.69-13.05L151.69-13.05Q151.69-13.6 151.59-14.18 151.49-14.75 151.39-15.15L151.39-15.15Q150.59-15.4 149.84-15.48 149.09-15.55 148.39-15.55L148.39-15.55Q145.74-15.55 144.24-14.55 142.74-13.55 142.74-11.8L142.74-11.8Q142.74-10.25 143.84-9.4 144.94-8.55 146.79-8.55ZM166.98 13.8L166.98 13.8Q163.23 13.8 161.03 12.25 158.83 10.7 158.83 8.25L158.83 8.25Q158.83 6.45 159.96 5.05 161.08 3.65 162.93 3.65L162.93 3.65Q163.98 3.65 163.98 4.25L163.98 4.25Q163.98 4.6 163.86 5.05 163.73 5.5 163.73 5.95L163.73 5.95Q163.73 7.35 165.33 8.03 166.93 8.7 169.18 8.7L169.18 8.7Q170.58 8.7 172.03 8.4 173.48 8.1 174.46 7.48 175.43 6.85 175.43 5.8L175.43 5.8Q175.43 4.65 174.28 4.1 173.13 3.55 171.38 3.28 169.63 3 167.81 2.78 165.98 2.55 164.68 2.05L164.68 2.05Q163.03 1.5 162.23 0.7 161.43-0.1 161.43-1.35L161.43-1.35Q161.43-3.7 164.28-5.1L164.28-5.1Q162.63-5.95 161.81-7.5 160.98-9.05 160.98-10.95L160.98-10.95Q160.98-13.4 162.26-15.55 163.53-17.7 166.06-19.07 168.58-20.45 172.38-20.45L172.38-20.45Q174.08-20.45 175.83-20.13 177.58-19.8 178.76-18.93 179.93-18.05 179.93-16.4L179.93-16.4Q179.93-15.8 179.68-15.08 179.43-14.35 178.73-14.35L178.73-14.35Q178.43-14.35 177.93-14.48 177.43-14.6 177.03-14.7L177.03-14.7Q177.13-14.2 177.21-13.6 177.28-13 177.28-12.35L177.28-12.35Q177.28-9.4 175.28-7.03 173.28-4.65 169.43-4.2L169.43-4.2Q168.03-4.1 167.36-3.88 166.68-3.65 166.68-3.1L166.68-3.1Q166.68-2.6 167.28-2.38 167.88-2.15 168.83-2.05L168.83-2.05Q171.88-1.8 174.23-1.2 176.58-0.6 177.91 0.73 179.23 2.05 179.23 4.5L179.23 4.5Q179.23 7.35 177.56 9.43 175.88 11.5 173.08 12.65 170.28 13.8 166.98 13.8ZM168.88-8.55L168.88-8.55Q171.18-8.55 172.48-9.8 173.78-11.05 173.78-13.05L173.78-13.05Q173.78-13.6 173.68-14.18 173.58-14.75 173.48-15.15L173.48-15.15Q172.68-15.4 171.93-15.48 171.18-15.55 170.48-15.55L170.48-15.55Q167.83-15.55 166.33-14.55 164.83-13.55 164.83-11.8L164.83-11.8Q164.83-10.25 165.93-9.4 167.03-8.55 168.88-8.55ZM190.58 0.65L190.58 0.65Q186.78 0.65 184.66-1.53 182.53-3.7 182.53-7.6L182.53-7.6Q182.53-11.15 184.08-14.05 185.63-16.95 188.26-18.68 190.88-20.4 194.03-20.4L194.03-20.4Q197.03-20.4 198.83-18.93 200.63-17.45 200.63-15L200.63-15Q200.63-13.05 199.43-11.4 198.23-9.75 196.23-8.78 194.23-7.8 191.78-7.8L191.78-7.8Q188.78-7.8 186.88-9.15L186.88-9.15Q186.93-6.85 188.46-5.45 189.98-4.05 192.38-4.05L192.38-4.05Q193.83-4.05 195.36-4.58 196.88-5.1 197.98-6L197.98-6Q198.68-6.6 199.28-6.6L199.28-6.6Q199.78-6.6 200.11-6.28 200.43-5.95 200.43-5.45L200.43-5.45Q200.43-4.35 198.53-2.55L198.53-2.55Q195.18 0.65 190.58 0.65ZM191.33-11.1L191.33-11.1Q193.13-11.1 194.33-11.85 195.53-12.6 195.53-13.75L195.53-13.75Q195.53-14.7 194.73-15.23 193.93-15.75 192.53-15.75L192.53-15.75Q190.68-15.75 189.31-14.78 187.93-13.8 187.33-12.05L187.33-12.05Q188.03-11.6 189.13-11.35 190.23-11.1 191.33-11.1ZM207.48 0.55L207.48 0.55Q206.68 0.55 206.2 0.28 205.73 0 205.88-0.65L205.88-0.65Q206.43-2.8 206.8-5.03 207.18-7.25 207.18-9.3L207.18-9.3Q207.18-11.95 206.85-13.18 206.53-14.4 205.98-14.88 205.43-15.35 204.63-15.6L204.63-15.6Q204.28-15.75 204-16 203.73-16.25 203.73-16.7L203.73-16.7Q203.73-17.4 204.28-18.25 204.83-19.1 205.83-19.73 206.83-20.35 208.13-20.35L208.13-20.35Q209.83-20.35 210.5-19.18 211.18-18 211.18-16.1L211.18-16.1Q212.08-18.1 213.4-19.28 214.73-20.45 216.73-20.45L216.73-20.45Q218.08-20.45 218.98-19.85 219.88-19.25 219.88-17.9L219.88-17.9Q219.88-16.55 219-15.38 218.13-14.2 217.23-14.2L217.23-14.2Q217.08-14.2 216.88-14.25 216.68-14.3 216.53-14.5L216.53-14.5Q215.88-15.3 214.93-15.3L214.93-15.3Q213.48-15.3 212.38-13.4 211.28-11.5 211.18-8.15L211.18-8.15Q211.23-6.9 211.25-5.6 211.28-4.3 211.28-3.7L211.28-3.7Q211.28-1.85 210.25-0.65 209.23 0.55 207.48 0.55Z" opacity="1" transform="matrix(1,0,0,1,0,0)" fill="#2a160c" class="wordmark-text-0" data-fill-palette-color="primary" id="text-0"></path></svg></g></svg></g></svg></g></svg></g><g></g></svg></g></svg></g></svg></g><g><path d="M82.142 83.986A122.216 122.216 0 0 1 313.378 83.986L308.524 83.986A117.362 117.362 0 0 0 86.996 83.986L82.142 83.986M82.142 163.214A122.216 122.216 0 0 0 313.378 163.214L308.524 163.214A117.362 117.362 0 0 1 86.996 163.214L82.142 163.214" fill="#2a160c" stroke="transparent" data-fill-palette-color="tertiary"></path></g></svg></g><defs></defs></svg><rect width="395.52" height="247.2" fill="none" stroke="none" visibility="hidden"></rect></g></svg></g></svg>